<?xml version="1.0" encoding="UTF-8"?>
<svg xmlns="http://www.w3.org/2000/svg" xmlns:xlink="http://www.w3.org/1999/xlink" width="14px" height="16px" viewBox="0 0 14 16" version="1.1">
<g id="surface1">
<path style=" stroke:none;fill-rule:nonzero;fill:rgb(0%,0%,0%);fill-opacity:1;" d="M 13.707031 8.707031 C 14.097656 8.316406 14.097656 7.679688 13.707031 7.289062 L 8.707031 2.289062 C 8.316406 1.898438 7.679688 1.898438 7.289062 2.289062 C 6.898438 2.679688 6.898438 3.316406 7.289062 3.707031 L 10.585938 7 L 1 7 C 0.445312 7 0 7.445312 0 8 C 0 8.554688 0.445312 9 1 9 L 10.585938 9 L 7.292969 12.292969 C 6.902344 12.683594 6.902344 13.320312 7.292969 13.710938 C 7.683594 14.101562 8.320312 14.101562 8.710938 13.710938 L 13.710938 8.710938 Z M 13.707031 8.707031 "/>
</g>
</svg>
