<?xml version="1.0" encoding="UTF-8"?>
<svg xmlns="http://www.w3.org/2000/svg" xmlns:xlink="http://www.w3.org/1999/xlink" width="45px" height="45px" viewBox="0 0 45 45" version="1.1">
<g id="surface1">
<path style=" stroke:none;fill-rule:nonzero;fill:rgb(0%,0%,0%);fill-opacity:1;" d="M 0.34375 4.824219 C 0.921875 3.59375 2.152344 2.8125 3.515625 2.8125 L 41.484375 2.8125 C 42.847656 2.8125 44.078125 3.59375 44.65625 4.824219 C 45.238281 6.054688 45.0625 7.507812 44.199219 8.5625 L 28.125 28.203125 L 28.125 39.375 C 28.125 40.4375 27.527344 41.414062 26.570312 41.890625 C 25.613281 42.363281 24.476562 42.265625 23.625 41.625 L 18 37.40625 C 17.289062 36.878906 16.875 36.042969 16.875 35.15625 L 16.875 28.203125 L 0.789062 8.550781 C -0.0625 7.507812 -0.246094 6.046875 0.34375 4.824219 Z M 0.34375 4.824219 "/>
</g>
</svg>
