<?xml version="1.0" encoding="UTF-8"?>
<svg xmlns="http://www.w3.org/2000/svg" xmlns:xlink="http://www.w3.org/1999/xlink" width="18px" height="16px" viewBox="0 0 18 16" version="1.1">
<g id="surface1">
<path style=" stroke:none;fill-rule:nonzero;fill:rgb(0%,0%,0%);fill-opacity:1;" d="M 15.257812 4.742188 C 15.265625 4.882812 15.265625 5.027344 15.265625 5.167969 C 15.265625 9.503906 12.019531 14.496094 6.082031 14.496094 C 4.253906 14.496094 2.554688 13.960938 1.125 13.027344 C 1.382812 13.058594 1.632812 13.066406 1.902344 13.066406 C 3.414062 13.066406 4.804688 12.550781 5.910156 11.664062 C 4.492188 11.632812 3.304688 10.691406 2.894531 9.394531 C 3.09375 9.417969 3.292969 9.441406 3.503906 9.441406 C 3.792969 9.441406 4.082031 9.402344 4.355469 9.332031 C 2.875 9.027344 1.765625 7.707031 1.765625 6.113281 L 1.765625 6.070312 C 2.191406 6.316406 2.695312 6.46875 3.226562 6.488281 C 2.355469 5.898438 1.785156 4.894531 1.785156 3.753906 C 1.785156 3.148438 1.941406 2.589844 2.222656 2.101562 C 3.8125 4.089844 6.199219 5.394531 8.882812 5.53125 C 8.828125 5.289062 8.800781 5.035156 8.800781 4.78125 C 8.800781 2.972656 10.238281 1.503906 12.027344 1.503906 C 12.960938 1.503906 13.796875 1.898438 14.386719 2.539062 C 15.117188 2.398438 15.816406 2.121094 16.4375 1.746094 C 16.195312 2.507812 15.683594 3.148438 15.015625 3.554688 C 15.667969 3.480469 16.296875 3.300781 16.875 3.042969 C 16.4375 3.695312 15.886719 4.273438 15.257812 4.742188 Z M 15.257812 4.742188 "/>
</g>
</svg>
